<svg xmlns="http://www.w3.org/2000/svg" viewBox="0 0 771.89 782.07"><defs><style>.cls-1{fill:#83c6d6;}.cls-2{fill:#e5de57;}.cls-3{fill:#7f7f7c;}</style></defs><title>Ресурс 1</title><g id="Слой_2" data-name="Слой 2"><g id="fishing"><rect class="cls-1" width="771.89" height="782.07"/><path d="M748.23,604.08A144.37,144.37,0,0,0,670,514.46a306.37,306.37,0,0,0,16.15-59,46.25,46.25,0,0,1,6,8.58,30.73,30.73,0,0,0,28.08,17.87,32.59,32.59,0,0,0,5.18-.42,31.44,31.44,0,0,0,25.91-27.87c1.07-10.12,23.81-244.12-132.54-298.73C574.66,103.94,513.56,62.07,471,42.49a31.25,31.25,0,0,0-44.31,28.8,73.08,73.08,0,0,1-.31,7.79c-1.15-1.43-2.28-2.93-3.36-4.52a31.24,31.24,0,0,0-25.84-13.69c-.57,0-1.14,0-1.71.05a31.23,31.23,0,0,0-25.9,16.55c-19.41,36.57-38.89,102.9-40.79,172.25-41.14,51.81-18.12,119.9,3.42,153.69a31.1,31.1,0,0,0,10.32,10,29.69,29.69,0,0,0-4-.29h-.17a31.25,31.25,0,0,0-26.17,14.18l-57.61,88.32a31.25,31.25,0,0,0,9.1,43.25l2.79,1.81c-10.69,21.37-32.92,35.94-57.62,35.94-36.08,0-64.38-28.35-64.43-64.53,0-30.86,9-39.07,47.48-60.79,30.55-17.23,81.69-46.06,81.69-110.28V263.29A114.13,114.13,0,1,0,92.28,171.05a113.64,113.64,0,0,0,51.81,95.64v82.59c-5.15,3.24-12.13,7.17-15.81,9.25-39.67,22.37-113.52,64-113.37,173.75C15.06,641,100.24,726.1,208.83,726.1a193.43,193.43,0,0,0,190.57-158L412.07,560a31.25,31.25,0,0,0,9.56-43.15l62.61,58.9a144,144,0,0,0,9.9,154.8A31.25,31.25,0,0,0,549,722.06a98.75,98.75,0,0,1,154.71-46.37,31.25,31.25,0,0,0,50.46-23.06A143.76,143.76,0,0,0,748.23,604.08Z"/><path class="cls-2" d="M718.3,613.06a112.77,112.77,0,0,0-92.85-79.34c18.24-28.14,29.76-68.78,34-113.92h0c39-14.8,60.87,30.54,60.87,30.54s23.89-226.8-119.54-268.45C557.27,129,495.22,88,457.94,70.88c.45,34-15.82,58.1-15.82,58.1s-26.56-9.8-44.95-36.86c-18.84,35.5-37.49,102.7-37.28,169.66-49.65,49-1.33,124.82-1.33,124.82s1-33.15,13.4-41.47c30.4,97.75,95.4,194.55,158,221.18A112.77,112.77,0,0,0,519.34,712.1a130,130,0,0,1,203.58-61A112.76,112.76,0,0,0,718.3,613.06ZM484.65,156.65A34,34,0,1,1,461.82,199,34,34,0,0,1,484.65,156.65ZM499,298.94c-50.6,15.17-107-23.85-107-23.85s47.58,9.61,98.17-5.55c41.45-12.44,72.05-37.63,81.75-46.33.06,1.19.15,2.41.23,3.63C564.06,243.55,539.56,286.78,499,298.94Z"/><path class="cls-3" d="M342.71,444.39l56.94,89.3-24.71,15.75c-8.64,81.62-77.87,145.42-161.74,145.42-91.08,0-162.54-71.44-162.66-162.62-.13-91.46,58.6-124.57,97.47-146.49,19.15-10.8,31.7-18.36,31.7-24.72V247.89a83,83,0,1,1,67-2.15V361c0,46-36.47,66.53-65.78,83.06-39.35,22.18-63.46,38.31-63.39,88.06.07,53.68,42.1,95.73,95.68,95.73a95.75,95.75,0,0,0,94.36-80.53L285.1,532.7Z"/></g></g></svg>