<svg id='fish' xmlns="http://www.w3.org/2000/svg" viewBox="0 0 283.46 141.73"><defs><style>.cls-1{fill:#fff;}.cls-2{fill:currentColor;}</style></defs><g id="Слой_2" data-name="Слой 2"><g id="fish"><g id="Слой_1-2" data-name="Слой 1-2"><path d="M276.14,56.57c-3.45-4.21-9.76-10.52-20.2-17.06a139.86,139.86,0,0,0-36.61-15.63l-6.6,8.27c-19.49,24.07-19.51,53.79,0,77.83l6.94,8.29a140.57,140.57,0,0,0,36.26-15.46c18.71-11.61,27.53-26.23,27.53-31.73C283.46,65.86,278.71,59.75,276.14,56.57Z"/></g><path d="M188.72,71.06a64.27,64.27,0,0,1,4.18-22.65,63.45,63.45,0,0,1,13-20.68L210,22.58a129,129,0,0,0-12.86-2.4A131.53,131.53,0,0,0,181.94,19c-12.31-6.8-30.81-14.92-52.09-17.5L112.51,0l7.8,25A163.36,163.36,0,0,0,68.16,47.6,99.62,99.62,0,0,0,58,41.85C36.33,31.14,14.84,30.19,0,31.23L.81,40A66.47,66.47,0,0,0,4.54,51,68.51,68.51,0,0,0,18.05,71C8.24,81.38,3.1,91.83.86,101.74a1.55,1.55,0,0,0,0,.23L.06,112.06A144.15,144.15,0,0,0,58.92,99.44c3.22-1.47,6.28-3,9.18-4.62a222.9,222.9,0,0,0,22.43,11.62,225.29,225.29,0,0,0,28.82,10.62l-6.52,24.67,17-1.15C151,138,169.41,129.89,181.8,123c4.38-.17,9-.49,14-1,5.3-.58,10.27-1.33,14.87-2.18l-4.09-5C202.21,110,188.79,93.77,188.72,71.06Z"/><rect class="cls-1" x="218.43" y="57.99" width="19.2" height="14.8"/><g id="Слой_1-2-2" data-name="Слой 1-2"><path class="cls-2" d="M184.71,71.07c0-14.64,5.39-29,15.64-41.66l4.06-5.15a208.66,208.66,0,0,0-26.16-2.76C166.53,15,148.9,7.29,128.64,4.83L116.17,3.19l7.19,23.86C101,32.5,81.18,43.58,68.1,51.19q-3.8-2.27-8-4.45C38.77,35.55,15.72,34.48,14.76,34.44L4.31,34,5.75,41.5c.15.77,3.65,17.24,17,29.51C9.4,83.26,5.92,99.73,5.75,100.51l-1.44,7.57,10.45-.49c1,0,24-1.11,45.38-12.3Q64.22,93.15,68,90.9c13.1,7.66,32.88,18.75,55.31,24.2L116.17,139l12.47-1.68c20.16-2.44,37.68-10.18,49.47-16.71a208.75,208.75,0,0,0,26.53-2.78l-4.25-5.09C190.11,100.08,184.71,85.7,184.71,71.07Z"/><path class="cls-2" d="M273,57.86c-3.14-3.83-8.89-9.58-18.39-15.54a127.54,127.54,0,0,0-33.34-14.23l-6,7.53c-17.75,21.92-17.77,49,0,70.87l6.31,7.55a127.74,127.74,0,0,0,33-14.08c17-10.57,25.07-23.88,25.07-28.89C279.65,66.32,275.32,60.75,273,57.86ZM228,71.07c-4.75,0-8.59-2.77-8.59-6.18s3.88-6.17,8.59-6.17,8.61,2.77,8.61,6.17S232.78,71.07,228,71.07Z"/></g><path d="M188.5,31.23a69.44,69.44,0,0,0,2.56,80.34l-6.08-.65a70.34,70.34,0,0,1-1.23-79.32Z"/><path d="M176.26,33.29a68.51,68.51,0,0,0,1.8,76.17l-5.66-.9a68.1,68.1,0,0,1-1.33-74.14Z"/><path d="M164.77,35.67a63.31,63.31,0,0,0,.83,68.52l-7.89-5.25A61.93,61.93,0,0,1,160,36.29Z"/></g></g></svg>