<svg id='fish' xmlns="http://www.w3.org/2000/svg" viewBox="0 0 283.46 141.73"><g data-name="Слой 2"><g id="Слой_1-2" data-name="Слой 1"><path fill="currentColor" d="M185.72,70.87c0-15.28,5.55-30.28,16.1-43.49L206,22a211.56,211.56,0,0,0-26.93-2.88C167,12.36,148.86,4.28,128,1.72L115.16,0l7.4,24.91C99.49,30.6,79.14,42.17,65.67,50.12q-3.91-2.37-8.19-4.65c-22-11.68-45.73-12.8-46.72-12.84L0,32.21,1.48,40c.16.8,3.76,18,17.52,30.81C5.24,83.6,1.66,100.8,1.48,101.61L0,109.52,10.76,109c1,0,24.74-1.16,46.72-12.84q4.2-2.23,8.07-4.58c13.49,8,33.85,19.57,56.94,25.26l-7.33,24.92L128,140c20.75-2.55,38.79-10.63,50.93-17.44a213.69,213.69,0,0,0,27.31-2.91l-4.38-5.31C191.28,101.16,185.72,86.15,185.72,70.87Z"/><path fill="currentColor" d="M276.59,57.08c-3.23-4-9.15-10-18.93-16.22A130.43,130.43,0,0,0,223.34,26l-6.19,7.86c-18.27,22.89-18.29,51.14,0,74l6.5,7.88a130.82,130.82,0,0,0,34-14.7C275.19,90,283.46,76.1,283.46,70.87,283.46,65.91,279,60.1,276.59,57.08ZM230.31,70.87c-4.89,0-8.85-2.89-8.85-6.45s4-6.44,8.85-6.44,8.86,2.89,8.86,6.44S235.21,70.87,230.31,70.87Z"/></g></g></svg>